<svg width="509" height="508" viewBox="0 0 509 508" fill="none" xmlns="http://www.w3.org/2000/svg">
<g filter="url(#filter0_d)">
<circle cx="254.43" cy="250" r="250" fill="#F2F2F2"/>
</g>
<g filter="url(#filter1_d)">
<rect x="311.089" y="109.664" width="168" height="265" transform="rotate(25 311.089 109.664)" fill="#1D2F45" stroke="#94AECE"/>
<mask id="path-3-inside-1" fill="white">
<path d="M353.293 220.373L367.304 263.686L353.217 293.897L311.031 311.004L295.987 267.21L310.074 237L353.293 220.373Z"/>
<path d="M353.293 220.373L367.304 263.686L353.217 293.897L311.031 311.004L295.987 267.21L310.074 237L353.293 220.373Z"/>
</mask>
<path d="M353.293 220.373L367.304 263.686L353.217 293.897L311.031 311.004L295.987 267.21L310.074 237L353.293 220.373Z" fill="#5286C5"/>
<path d="M353.293 220.373L367.304 263.686L353.217 293.897L311.031 311.004L295.987 267.21L310.074 237L353.293 220.373Z" fill="#5286C5"/>
<path d="M353.293 220.373L367.304 263.686L353.217 293.897L311.031 311.004L295.987 267.21L310.074 237L353.293 220.373Z" stroke="#94AECE" stroke-width="2" mask="url(#path-3-inside-1)"/>
<path d="M353.293 220.373L367.304 263.686L353.217 293.897L311.031 311.004L295.987 267.21L310.074 237L353.293 220.373Z" stroke="#94AECE" stroke-width="2" mask="url(#path-3-inside-1)"/>
<mask id="path-4-inside-2" fill="white">
<path d="M346.527 232.981L355.845 262.788L346.092 283.703L317.269 295.725L307.25 265.591L317.003 244.676L346.527 232.981Z"/>
<path d="M346.527 232.981L355.845 262.788L346.092 283.703L317.269 295.725L307.25 265.591L317.003 244.676L346.527 232.981Z"/>
</mask>
<path d="M346.527 232.981L355.845 262.788L346.092 283.703L317.269 295.725L307.25 265.591L317.003 244.676L346.527 232.981Z" fill="#5286C5"/>
<path d="M346.527 232.981L355.845 262.788L346.092 283.703L317.269 295.725L307.25 265.591L317.003 244.676L346.527 232.981Z" fill="#5286C5"/>
<path d="M346.527 232.981L355.845 262.788L346.092 283.703L317.269 295.725L307.25 265.591L317.003 244.676L346.527 232.981Z" stroke="#94AECE" stroke-width="2" mask="url(#path-4-inside-2)"/>
<path d="M346.527 232.981L355.845 262.788L346.092 283.703L317.269 295.725L307.25 265.591L317.003 244.676L346.527 232.981Z" stroke="#94AECE" stroke-width="2" mask="url(#path-4-inside-2)"/>
<path d="M310.458 237.362L317.377 245.002" stroke="#94AECE"/>
<path d="M352.952 220.766L346.371 233.696" stroke="#94AECE"/>
<path d="M355.537 262.796L366.743 263.609" stroke="#94AECE"/>
<path d="M353.155 293.684L345.932 283.144" stroke="#94AECE"/>
<path d="M307.868 265.394L296.511 267.27" stroke="#94AECE"/>
<path d="M317.633 295.325L311.113 310.491" stroke="#94AECE"/>
<path d="M310.1 237.195L338.078 262.379L353.703 293.939L310.786 311.441L295.942 267.556L310.1 237.195Z" fill="url(#paint0_linear)"/>
</g>
<g filter="url(#filter2_d)">
<rect x="170.222" y="117.75" width="168" height="265" fill="#1D2F45" stroke="#94AECE"/>
<mask id="path-13-inside-3" fill="white">
<path d="M255.26 200.25L286.263 233.583V266.917L255.26 300.25L223.117 266.917V233.583L255.26 200.25Z"/>
<path d="M255.26 200.25L286.263 233.583V266.917L255.26 300.25L223.117 266.917V233.583L255.26 200.25Z"/>
</mask>
<path d="M255.26 200.25L286.263 233.583V266.917L255.26 300.25L223.117 266.917V233.583L255.26 200.25Z" fill="#5286C5"/>
<path d="M255.26 200.25L286.263 233.583V266.917L255.26 300.25L223.117 266.917V233.583L255.26 200.25Z" fill="#5286C5"/>
<path d="M255.26 200.25L286.263 233.583V266.917L255.26 300.25L223.117 266.917V233.583L255.26 200.25Z" stroke="#94AECE" stroke-width="2" mask="url(#path-13-inside-3)"/>
<path d="M255.26 200.25L286.263 233.583V266.917L255.26 300.25L223.117 266.917V233.583L255.26 200.25Z" stroke="#94AECE" stroke-width="2" mask="url(#path-13-inside-3)"/>
<mask id="path-14-inside-4" fill="white">
<path d="M254.456 214.536L275.498 237.613V260.69L254.456 283.767L232.641 260.69V237.613L254.456 214.536Z"/>
<path d="M254.456 214.536L275.498 237.613V260.69L254.456 283.767L232.641 260.69V237.613L254.456 214.536Z"/>
</mask>
<path d="M254.456 214.536L275.498 237.613V260.69L254.456 283.767L232.641 260.69V237.613L254.456 214.536Z" fill="#5286C5"/>
<path d="M254.456 214.536L275.498 237.613V260.69L254.456 283.767L232.641 260.69V237.613L254.456 214.536Z" fill="#5286C5"/>
<path d="M254.456 214.536L275.498 237.613V260.69L254.456 283.767L232.641 260.69V237.613L254.456 214.536Z" stroke="#94AECE" stroke-width="2" mask="url(#path-14-inside-4)"/>
<path d="M254.456 214.536L275.498 237.613V260.69L254.456 283.767L232.641 260.69V237.613L254.456 214.536Z" stroke="#94AECE" stroke-width="2" mask="url(#path-14-inside-4)"/>
<path d="M223.617 233.75L233.117 237.75" stroke="#94AECE"/>
<path d="M255.117 200.75L254.617 215.25" stroke="#94AECE"/>
<path d="M275.222 237.75L285.721 233.75" stroke="#94AECE"/>
<path d="M286.117 266.75L275.117 260.25" stroke="#94AECE"/>
<path d="M233.117 260.25L223.617 266.75" stroke="#94AECE"/>
<path d="M254.617 283.25L255.117 299.75" stroke="#94AECE"/>
<path d="M223.222 233.75L259.222 244.75L286.722 266.75L255.222 300.75L223.222 267.25L223.222 233.75Z" fill="url(#paint1_linear)"/>
</g>
<g filter="url(#filter3_d)">
<rect x="45.0949" y="182.664" width="168" height="265" transform="rotate(-25 45.0949 182.664)" fill="#1D2F45" stroke="#94AECE"/>
<mask id="path-23-inside-5" fill="white">
<path d="M157.031 221.496L199.217 238.604L213.304 268.814L199.293 312.127L156.074 295.501L141.987 265.291L157.031 221.496Z"/>
<path d="M157.031 221.496L199.217 238.604L213.304 268.814L199.293 312.127L156.074 295.501L141.987 265.291L157.031 221.496Z"/>
</mask>
<path d="M157.031 221.496L199.217 238.604L213.304 268.814L199.293 312.127L156.074 295.501L141.987 265.291L157.031 221.496Z" fill="#5286C5"/>
<path d="M157.031 221.496L199.217 238.604L213.304 268.814L199.293 312.127L156.074 295.501L141.987 265.291L157.031 221.496Z" fill="#5286C5"/>
<path d="M157.031 221.496L199.217 238.604L213.304 268.814L199.293 312.127L156.074 295.501L141.987 265.291L157.031 221.496Z" stroke="#94AECE" stroke-width="2" mask="url(#path-23-inside-5)"/>
<path d="M157.031 221.496L199.217 238.604L213.304 268.814L199.293 312.127L156.074 295.501L141.987 265.291L157.031 221.496Z" stroke="#94AECE" stroke-width="2" mask="url(#path-23-inside-5)"/>
<mask id="path-24-inside-6" fill="white">
<path d="M162.34 234.783L191.163 246.805L200.916 267.72L191.598 297.527L162.074 285.832L152.322 264.917L162.34 234.783Z"/>
<path d="M162.34 234.783L191.163 246.805L200.916 267.72L191.598 297.527L162.074 285.832L152.322 264.917L162.34 234.783Z"/>
</mask>
<path d="M162.34 234.783L191.163 246.805L200.916 267.72L191.598 297.527L162.074 285.832L152.322 264.917L162.34 234.783Z" fill="#5286C5"/>
<path d="M162.34 234.783L191.163 246.805L200.916 267.72L191.598 297.527L162.074 285.832L152.322 264.917L162.34 234.783Z" fill="#5286C5"/>
<path d="M162.34 234.783L191.163 246.805L200.916 267.72L191.598 297.527L162.074 285.832L152.322 264.917L162.34 234.783Z" stroke="#94AECE" stroke-width="2" mask="url(#path-24-inside-6)"/>
<path d="M162.34 234.783L191.163 246.805L200.916 267.72L191.598 297.527L162.074 285.832L152.322 264.917L162.34 234.783Z" stroke="#94AECE" stroke-width="2" mask="url(#path-24-inside-6)"/>
<path d="M142.511 265.23L152.812 264.841" stroke="#94AECE"/>
<path d="M157.113 222.01L162.788 235.362" stroke="#94AECE"/>
<path d="M190.971 247.046L198.797 238.984" stroke="#94AECE"/>
<path d="M213.102 268.725L200.385 267.483" stroke="#94AECE"/>
<path d="M162.32 285.233L156.458 295.138" stroke="#94AECE"/>
<path d="M191.526 296.991L198.952 311.734" stroke="#94AECE"/>
<path d="M142.153 265.397L179.429 260.152L213.65 268.469L199.47 312.596L156.311 295.758L142.153 265.397Z" fill="url(#paint2_linear)"/>
</g>
<defs>
<filter id="filter0_d" x="0.43042" y="0" width="508" height="508" filterUnits="userSpaceOnUse" color-interpolation-filters="sRGB">
<feFlood flood-opacity="0" result="BackgroundImageFix"/>
<feColorMatrix in="SourceAlpha" type="matrix" values="0 0 0 0 0 0 0 0 0 0 0 0 0 0 0 0 0 0 127 0" result="hardAlpha"/>
<feOffset dy="4"/>
<feGaussianBlur stdDeviation="2"/>
<feComposite in2="hardAlpha" operator="out"/>
<feColorMatrix type="matrix" values="0 0 0 0 0 0 0 0 0 0 0 0 0 0 0 0 0 0 0.25 0"/>
<feBlend mode="normal" in2="BackgroundImageFix" result="effect1_dropShadow"/>
<feBlend mode="normal" in="SourceGraphic" in2="effect1_dropShadow" result="shape"/>
</filter>
<filter id="filter1_d" x="194.43" y="109" width="273.583" height="320.5" filterUnits="userSpaceOnUse" color-interpolation-filters="sRGB">
<feFlood flood-opacity="0" result="BackgroundImageFix"/>
<feColorMatrix in="SourceAlpha" type="matrix" values="0 0 0 0 0 0 0 0 0 0 0 0 0 0 0 0 0 0 127 0" result="hardAlpha"/>
<feOffset dy="4"/>
<feGaussianBlur stdDeviation="2"/>
<feComposite in2="hardAlpha" operator="out"/>
<feColorMatrix type="matrix" values="0 0 0 0 0 0 0 0 0 0 0 0 0 0 0 0 0 0 0.25 0"/>
<feBlend mode="normal" in2="BackgroundImageFix" result="effect1_dropShadow"/>
<feBlend mode="normal" in="SourceGraphic" in2="effect1_dropShadow" result="shape"/>
</filter>
<filter id="filter2_d" x="165.722" y="117.25" width="177" height="274" filterUnits="userSpaceOnUse" color-interpolation-filters="sRGB">
<feFlood flood-opacity="0" result="BackgroundImageFix"/>
<feColorMatrix in="SourceAlpha" type="matrix" values="0 0 0 0 0 0 0 0 0 0 0 0 0 0 0 0 0 0 127 0" result="hardAlpha"/>
<feOffset dy="4"/>
<feGaussianBlur stdDeviation="2"/>
<feComposite in2="hardAlpha" operator="out"/>
<feColorMatrix type="matrix" values="0 0 0 0 0 0 0 0 0 0 0 0 0 0 0 0 0 0 0.25 0"/>
<feBlend mode="normal" in2="BackgroundImageFix" result="effect1_dropShadow"/>
<feBlend mode="normal" in="SourceGraphic" in2="effect1_dropShadow" result="shape"/>
</filter>
<filter id="filter3_d" x="40.4304" y="111" width="273.582" height="320.5" filterUnits="userSpaceOnUse" color-interpolation-filters="sRGB">
<feFlood flood-opacity="0" result="BackgroundImageFix"/>
<feColorMatrix in="SourceAlpha" type="matrix" values="0 0 0 0 0 0 0 0 0 0 0 0 0 0 0 0 0 0 127 0" result="hardAlpha"/>
<feOffset dy="4"/>
<feGaussianBlur stdDeviation="2"/>
<feComposite in2="hardAlpha" operator="out"/>
<feColorMatrix type="matrix" values="0 0 0 0 0 0 0 0 0 0 0 0 0 0 0 0 0 0 0.25 0"/>
<feBlend mode="normal" in2="BackgroundImageFix" result="effect1_dropShadow"/>
<feBlend mode="normal" in="SourceGraphic" in2="effect1_dropShadow" result="shape"/>
</filter>
<linearGradient id="paint0_linear" x1="309.394" y1="301.414" x2="360.189" y2="261.104" gradientUnits="userSpaceOnUse">
<stop offset="0.00647027" stop-opacity="0.75"/>
<stop offset="1" stop-opacity="0"/>
</linearGradient>
<linearGradient id="paint1_linear" x1="249.722" y1="292.25" x2="278.722" y2="234.25" gradientUnits="userSpaceOnUse">
<stop offset="0.00647027" stop-opacity="0.75"/>
<stop offset="1" stop-opacity="0"/>
</linearGradient>
<linearGradient id="paint2_linear" x1="190.894" y1="307.217" x2="192.665" y2="242.395" gradientUnits="userSpaceOnUse">
<stop offset="0.00647027" stop-opacity="0.75"/>
<stop offset="1" stop-opacity="0"/>
</linearGradient>
</defs>
</svg>
